<svg xmlns="http://www.w3.org/2000/svg" xmlns:xlink="http://www.w3.org/1999/xlink" viewBox="0 0 97.22 23.16"><defs><style>.cls-1{isolation:isolate;}.cls-2{fill:url(#Áåçûìÿííûé_ãðàäèåíò_51);}.cls-3{mix-blend-mode:multiply;fill:url(#Áåçûìÿííûé_ãðàäèåíò_53);}.cls-4{fill:url(#Áåçûìÿííûé_ãðàäèåíò_52);}.cls-5{fill:url(#Áåçûìÿííûé_ãðàäèåíò_51-2);}.cls-6{fill:url(#Áåçûìÿííûé_ãðàäèåíò_52-2);}.cls-7{fill:url(#Áåçûìÿííûé_ãðàäèåíò_51-3);}</style><linearGradient id="Áåçûìÿííûé_ãðàäèåíò_51" x1="1491.36" y1="235.58" x2="1488.83" y2="223.91" gradientTransform="matrix(-0.99, -0.14, -0.14, 0.99, 1572.26, -10.1)" gradientUnits="userSpaceOnUse"><stop offset="0" stop-color="#c1cefc"/><stop offset="0.07" stop-color="#ccd7fd"/><stop offset="0.26" stop-color="#e3e9fe"/><stop offset="0.46" stop-color="#f3f5fe"/><stop offset="0.69" stop-color="#fcfdff"/><stop offset="0.99" stop-color="#fff"/></linearGradient><linearGradient id="Áåçûìÿííûé_ãðàäèåíò_53" x1="1483.68" y1="241.79" x2="1492.94" y2="216.09" gradientTransform="matrix(-0.99, -0.14, -0.14, 0.99, 1572.26, -10.1)" gradientUnits="userSpaceOnUse"><stop offset="0" stop-color="#c1cefc"/><stop offset="0.01" stop-color="#c2cefc"/><stop offset="0.28" stop-color="#d2d7fc"/><stop offset="0.58" stop-color="#dbdcfc"/><stop offset="0.99" stop-color="#dedefc"/></linearGradient><linearGradient id="Áåçûìÿííûé_ãðàäèåíò_52" x1="1490.73" y1="232.89" x2="1489.53" y2="215.9" gradientTransform="matrix(-0.99, -0.14, -0.14, 0.99, 1572.26, -10.1)" gradientUnits="userSpaceOnUse"><stop offset="0" stop-color="#94a4e3"/><stop offset="0.11" stop-color="#afbbea"/><stop offset="0.25" stop-color="#ccd4f2"/><stop offset="0.4" stop-color="#e3e7f8"/><stop offset="0.56" stop-color="#f3f4fc"/><stop offset="0.74" stop-color="#fcfcfe"/><stop offset="0.99" stop-color="#fff"/></linearGradient><linearGradient id="Áåçûìÿííûé_ãðàäèåíò_51-2" x1="1539.32" y1="230.85" x2="1537.07" y2="224.31" xlink:href="#Áåçûìÿííûé_ãðàäèåíò_51"/><linearGradient id="Áåçûìÿííûé_ãðàäèåíò_52-2" x1="1538.84" y1="232.12" x2="1537.29" y2="216.25" xlink:href="#Áåçûìÿííûé_ãðàäèåíò_52"/><linearGradient id="Áåçûìÿííûé_ãðàäèåíò_51-3" x1="1553.08" y1="223.11" x2="1555.89" y2="233.89" xlink:href="#Áåçûìÿííûé_ãðàäèåíò_51"/></defs><g class="cls-1"><g id="Layer_2" data-name="Layer 2"><g id="Ñëîé_1" data-name="Ñëîé 1"><path class="cls-2" d="M30.65,8.62l6.05,1.43L50.37,13l18.14,3.92,28.71,6.19S91.63,18.77,88,18.53a1.88,1.88,0,0,0-1.33.34,1.39,1.39,0,0,0-.48.71,5.24,5.24,0,0,0-.37-.83,4.76,4.76,0,0,0-2.7-2.28,2.45,2.45,0,0,0-2.2.07h0a1.24,1.24,0,0,0-.5.69A12.54,12.54,0,0,0,78.54,13C76.43,9.85,72.1,5.86,63.41,4.7c-5.65-.75-9-.21-10.89.76l-.07,0a4.17,4.17,0,0,0-2.56,4.4,8.18,8.18,0,0,0-2.44-2.22,15.69,15.69,0,0,0-5.86-2.19C35.36,4.38,30.65,8.62,30.65,8.62Z"/><path class="cls-3" d="M42.41,10.34l8,2.66,2.72.91,15.42,3c9.19,1.79,19.11,3.73,19.26,3.78-.27,0,7.34,1.6,2.9.59s-4-2.42-4-2.42a1.39,1.39,0,0,0-.48.71,5.24,5.24,0,0,0-.37-.83,4.18,4.18,0,0,1-1.64,0c-3.84-.74-3.29-2.1-3.27-2.16a1.24,1.24,0,0,0-.5.69A12.54,12.54,0,0,0,78.54,13c-1.2,1.13-3.65,1.93-8.41,1.65C57.24,13.91,50.07,6.8,52.45,5.49a4.17,4.17,0,0,0-2.56,4.4,8.18,8.18,0,0,0-2.44-2.22c.61.61.95,1.19.71,1.64C47.31,10.91,42.41,10.34,42.41,10.34Z"/><path class="cls-4" d="M30.61,8.61C28.33,9,74.08,20.28,75.27,19.36s22.3,4.34,21.91,3.75S74,15.87,72.52,16.21,40.54,6.8,30.61,8.61Z"/><path class="cls-5" d="M8.25,4.16c1.6.78,16.85,4.63,17.89,3.4a.24.24,0,0,0,.06-.11.12.12,0,0,0,0-.08,6.36,6.36,0,0,0-3.63-2.53c-2.09-.45-2.25.71-2.25.71A5.19,5.19,0,0,0,16,.6,9.93,9.93,0,0,0,8.71,2.24h0c-.13,0-.12.13.06.29C10.79,4.28,6.61,3.35,8.25,4.16Z"/><path class="cls-6" d="M8.25,4.16c1.6.78,16.85,4.63,17.89,3.4-.23-1.34-7.68-3-9.38-2.27-.44.19.26.2.27.22A14.36,14.36,0,0,0,8.71,2.24c-.13,0-.12.13.06.29C10.79,4.28,6.61,3.35,8.25,4.16Z"/><path class="cls-7" d="M3.48,1.41C5,1.75,4.81,1.14,3.93,1S3.45.38,1.12.06.34.73,3.48,1.41Z"/></g></g></g></svg>