<svg xmlns="http://www.w3.org/2000/svg" xmlns:xlink="http://www.w3.org/1999/xlink" viewBox="0 0 93.59 41.01"><defs><style>.cls-1{opacity:0.9;}.cls-2{fill:url(#Áåçûìÿííûé_ãðàäèåíò_51);}.cls-3{fill:url(#Áåçûìÿííûé_ãðàäèåíò_52);}.cls-4{fill:url(#Áåçûìÿííûé_ãðàäèåíò_51-2);}.cls-5{fill:url(#Áåçûìÿííûé_ãðàäèåíò_51-3);}.cls-6{fill:url(#Áåçûìÿííûé_ãðàäèåíò_51-4);}.cls-7{fill:url(#Áåçûìÿííûé_ãðàäèåíò_51-5);}</style><linearGradient id="Áåçûìÿííûé_ãðàäèåíò_51" x1="1289.92" y1="148.62" x2="1288.24" y2="114.59" gradientTransform="matrix(-1, -0.07, -0.07, 1, 1343.42, -25.86)" gradientUnits="userSpaceOnUse"><stop offset="0" stop-color="#c1cefc"/><stop offset="0.07" stop-color="#ccd7fd"/><stop offset="0.26" stop-color="#e3e9fe"/><stop offset="0.46" stop-color="#f3f5fe"/><stop offset="0.69" stop-color="#fcfdff"/><stop offset="0.99" stop-color="#fff"/></linearGradient><linearGradient id="Áåçûìÿííûé_ãðàäèåíò_52" x1="1279.14" y1="161.31" x2="1279.62" y2="95.64" gradientTransform="matrix(-1, -0.07, -0.07, 1, 1343.42, -25.86)" gradientUnits="userSpaceOnUse"><stop offset="0" stop-color="#94a4e3"/><stop offset="0.11" stop-color="#afbbea"/><stop offset="0.25" stop-color="#ccd4f2"/><stop offset="0.4" stop-color="#e3e7f8"/><stop offset="0.56" stop-color="#f3f4fc"/><stop offset="0.74" stop-color="#fcfcfe"/><stop offset="0.99" stop-color="#fff"/></linearGradient><linearGradient id="Áåçûìÿííûé_ãðàäèåíò_51-2" x1="1268.27" y1="168.31" x2="1263.27" y2="147.44" xlink:href="#Áåçûìÿííûé_ãðàäèåíò_51"/><linearGradient id="Áåçûìÿííûé_ãðàäèåíò_51-3" x1="1283.16" y1="165.9" x2="1278.11" y2="144.8" xlink:href="#Áåçûìÿííûé_ãðàäèåíò_51"/><linearGradient id="Áåçûìÿííûé_ãðàäèåíò_51-4" x1="1251.42" y1="142.25" x2="1248.84" y2="118.46" xlink:href="#Áåçûìÿííûé_ãðàäèåíò_51"/><linearGradient id="Áåçûìÿííûé_ãðàäèåíò_51-5" x1="1322.47" y1="161.15" x2="1294.34" y2="132.89" xlink:href="#Áåçûìÿííûé_ãðàäèåíò_51"/></defs><g id="Layer_2" data-name="Layer 2"><g id="Ñëîé_1" data-name="Ñëîé 1"><g class="cls-1"><path class="cls-2" d="M93.59,12.77a14.28,14.28,0,0,0-3.9-2c-9.41-3-12.26,3.55-11.7,8.75a14.31,14.31,0,0,0-3.79-4.42c-4.83-3.07-5.37,1.6-5.37,1.6S68,10.58,63.62,9a3.28,3.28,0,0,0-1.55-.22,1.45,1.45,0,0,0-.42.12,2.82,2.82,0,0,0-.07-.31C60.55,4.29,57.89.19,51.5,0,40.84-.31,33.09,19.9,30.17,28.91h0l0,.12c-.26.79-.47,1.5-.65,2.09v0c-.38,1.25-.57,2-.57,2s0,0,0-.15h0c0-.81-.28-4.52-2.55-4.46a2.49,2.49,0,0,0-1.75,1A14,14,0,0,0,22.43,34a3,3,0,0,0-.74-.77,1.79,1.79,0,0,0-.77-.31c-1.75-.23-2.48,2.79-2.48,2.79S11.05,30.38,7,30.8a15.55,15.55,0,0,0-7,2.66l21,3,.22,0,1.66.25,1.91.27h0l.54.1h0c3.35.57,8.72,1.43,14.76,2.19h0c15.56,2,35.5,3.28,36.45-2.71.05-.32,7.83-.09,17,.3Z"/><path class="cls-3" d="M93.59,35.16A19.19,19.19,0,0,1,81.17,28c.11.4,1.27,5.13-1.09,5.72-2.52.64-2.93-1.35-2.93-1.35h0l-1.21,2.51,0,0,1.24-2.48c-.1.05-4.13,2-3-4.51-2.61,1.71-6-8.51-6-8.51S67.58,23.3,64,23c-1.88-.17-2.48-1.93-2.63-3.59-.5,4.53-1.76,19.13-22.78,17-7.71-.77-8.43-7.19-8.37-7.47l0,.12-.65,2.09v0L28.89,33h0c0,.16-.91,3.76-3.87,2.89s-.43-6.32-.43-6.32A14,14,0,0,0,22.43,34a3,3,0,0,0-.74-.77A2.11,2.11,0,0,1,21,36.51l.22,0,4.12.62h0c3.34.57,8.72,1.43,14.75,2.19h0c15.56,2,35.5,3.28,36.45-2.71.05-.32,7.83-.09,17,.3Z"/><path class="cls-4" d="M76.17,24.73c2.08-1.63,1.91,4.84.75,5.21S74.43,26.1,76.17,24.73Z"/><path class="cls-5" d="M62.54,10.24c1.64-1.58,5.89,1.86,5.43,6.32S58.89,13.76,62.54,10.24Z"/><path class="cls-6" d="M93.59,14.2c-3.23-2.18-7.44-3.12-10.77-.75-4.27,3,4.41,11.88,10.77,12.67Z"/><path class="cls-7" d="M60.8,15.43c-.08,10.72-14.7,9.79-19.16,4.63S48.73-.24,53.81,1.35,60.84,10.16,60.8,15.43Z"/></g></g></g></svg>