<svg xmlns="http://www.w3.org/2000/svg" xmlns:xlink="http://www.w3.org/1999/xlink" viewBox="0 0 129.8 56.94"><defs><style>.cls-1{fill:url(#Áåçûìÿííûé_ãðàäèåíò_51);}.cls-2{fill:url(#Áåçûìÿííûé_ãðàäèåíò_53);}.cls-3{fill:url(#Áåçûìÿííûé_ãðàäèåíò_53-2);}.cls-4{fill:url(#Áåçûìÿííûé_ãðàäèåíò_51-2);}.cls-5{fill:url(#Áåçûìÿííûé_ãðàäèåíò_53-3);}.cls-6{fill:url(#Áåçûìÿííûé_ãðàäèåíò_51-3);}.cls-7{fill:url(#Áåçûìÿííûé_ãðàäèåíò_53-4);}.cls-8{fill:url(#Áåçûìÿííûé_ãðàäèåíò_51-4);}.cls-9{fill:url(#Áåçûìÿííûé_ãðàäèåíò_53-5);}.cls-10{fill:url(#Áåçûìÿííûé_ãðàäèåíò_430);}.cls-11{fill:url(#Áåçûìÿííûé_ãðàäèåíò_51-5);}.cls-12{fill:url(#Áåçûìÿííûé_ãðàäèåíò_430-2);}</style><linearGradient id="Áåçûìÿííûé_ãðàäèåíò_51" x1="1989.23" y1="-126.89" x2="1985.44" y2="-134.63" gradientTransform="matrix(-1, 0.02, 0.03, 1.4, 2040.22, 192.13)" gradientUnits="userSpaceOnUse"><stop offset="0" stop-color="#c1cefc"/><stop offset="0.07" stop-color="#ccd7fd"/><stop offset="0.26" stop-color="#e3e9fe"/><stop offset="0.46" stop-color="#f3f5fe"/><stop offset="0.69" stop-color="#fcfdff"/><stop offset="0.99" stop-color="#fff"/></linearGradient><linearGradient id="Áåçûìÿííûé_ãðàäèåíò_53" x1="1967.95" y1="31.26" x2="1961.16" y2="20.39" gradientTransform="matrix(-1, 0.03, 0.03, 1, 2079, -51.59)" gradientUnits="userSpaceOnUse"><stop offset="0" stop-color="#c1cefc"/><stop offset="0.01" stop-color="#c2cefc"/><stop offset="0.28" stop-color="#d2d7fc"/><stop offset="0.58" stop-color="#dbdcfc"/><stop offset="0.99" stop-color="#dedefc"/></linearGradient><linearGradient id="Áåçûìÿííûé_ãðàäèåíò_53-2" x1="1962.08" y1="34.88" x2="1954.18" y2="22.23" xlink:href="#Áåçûìÿííûé_ãðàäèåíò_53"/><linearGradient id="Áåçûìÿííûé_ãðàäèåíò_51-2" x1="2020.07" y1="39.42" x2="1965.14" y2="-8.93" gradientTransform="matrix(-1, 0.03, 0.03, 1, 2079, -51.59)" xlink:href="#Áåçûìÿííûé_ãðàäèåíò_51"/><linearGradient id="Áåçûìÿííûé_ãðàäèåíò_53-3" x1="1993.1" y1="14.41" x2="1976.24" y2="-0.43" xlink:href="#Áåçûìÿííûé_ãðàäèåíò_53"/><linearGradient id="Áåçûìÿííûé_ãðàäèåíò_51-3" x1="1998.54" y1="-102.2" x2="1954.6" y2="-140.88" xlink:href="#Áåçûìÿííûé_ãðàäèåíò_51"/><linearGradient id="Áåçûìÿííûé_ãðàäèåíò_53-4" x1="1976.42" y1="-121.6" x2="1962.36" y2="-133.98" gradientTransform="matrix(-1, 0.02, 0.03, 1.4, 2040.22, 192.13)" xlink:href="#Áåçûìÿííûé_ãðàäèåíò_53"/><linearGradient id="Áåçûìÿííûé_ãðàäèåíò_51-4" x1="2016.98" y1="45.31" x2="2021.49" y2="-20.49" gradientTransform="matrix(-1, 0.03, 0.03, 1, 2079, -51.59)" xlink:href="#Áåçûìÿííûé_ãðàäèåíò_51"/><linearGradient id="Áåçûìÿííûé_ãðàäèåíò_53-5" x1="2016.36" y1="19.76" x2="2012.82" y2="-15.76" xlink:href="#Áåçûìÿííûé_ãðàäèåíò_53"/><linearGradient id="Áåçûìÿííûé_ãðàäèåíò_430" x1="1988.48" y1="42.21" x2="1972.24" y2="-22.5" gradientTransform="matrix(-1, 0, 0, 1, 2050.27, 0)" gradientUnits="userSpaceOnUse"><stop offset="0" stop-color="#949fe3"/><stop offset="0.68" stop-color="#e1e4f7"/><stop offset="0.99" stop-color="#fff"/></linearGradient><linearGradient id="Áåçûìÿííûé_ãðàäèåíò_51-5" x1="1995.91" y1="19.78" x2="1991.3" y2="4.66" gradientTransform="matrix(-1, 0.03, 0.03, 1, 2079, -51.59)" xlink:href="#Áåçûìÿííûé_ãðàäèåíò_51"/><linearGradient id="Áåçûìÿííûé_ãðàäèåíò_430-2" x1="1990.14" y1="57.66" x2="1987.8" y2="43.14" xlink:href="#Áåçûìÿííûé_ãðàäèåíò_430"/></defs><g id="Layer_2" data-name="Layer 2"><g id="Ñëîé_1" data-name="Ñëîé 1"><path class="cls-1" d="M56.59,52c0-.19,1.08-3.37-1.47-4a5.26,5.26,0,0,0-4.51,1.28s.1-4.2-3.5-4.7-5.69,5.55-5.69,5.55Z"/><path class="cls-2" d="M114.88,35.78S123,39.58,121,42.6s-11-.44-10.91-.57S114.88,35.78,114.88,35.78Z"/><path class="cls-3" d="M129.68,44.9s-2.71-3.73-5.8-4.3-8.33,2.11-8.33,2.11Z"/><path class="cls-4" d="M91.64,31.44l1,.17c.2,0,.41.07.61.09a27.72,27.72,0,0,0,12.49-1.6,37.26,37.26,0,0,0,7.15-3.34,16.76,16.76,0,0,0-.24-2.7s0,0,0-.07c-.28-1.51-.84-3.14-2-3.56a4.13,4.13,0,0,0-2.48,0h0a6.27,6.27,0,0,0-2,1,12.79,12.79,0,0,0-.2-1.5c-.55-3-2.53-9.54-9.47-10.9-4.34-.85-7.91,2.15-10.22,5a25.18,25.18,0,0,0-2.84,4.3S81.18,29.21,91.64,31.44Z"/><path class="cls-5" d="M91.64,31.44l1,.17a1,1,0,0,1,.61.09c1.73.67,5.36,4.24,5.57,4.06s3.56-2.88,6.92-5.66c1-.86,2.07-1.72,3-2.52,1.16-1,2.19-1.86,2.89-2.5a7.05,7.05,0,0,0,1-1s0-.07,0-.07h0s-1.71.15-4.26.18c-1.69-1.25-1.17-3.4-.23-3.78a6.27,6.27,0,0,0-2,1,12.79,12.79,0,0,0-.2-1.5c-1.61,1.65-4.25,3.78-7.08,3.74-8.46.51-9.51-2.25-11.33-5.41a9.52,9.52,0,0,1-1.28-4.27,25.18,25.18,0,0,0-2.84,4.3S81.18,29.21,91.64,31.44Z"/><path class="cls-6" d="M56.5,55.83q2.11.36,4.38.6a66.2,66.2,0,0,0,14.88.17c.69-.08,1.35-.19,1.95-.3s1.17-.51,1.59-.71c.6-.28,1-.48,1.08-.54l0,0h0a9.11,9.11,0,0,0-.32-1.7s0,0,0,0a2.89,2.89,0,0,0-1.83-2.19,4.68,4.68,0,0,0-2.09.07h0a5.87,5.87,0,0,0-1.63.7,7.75,7.75,0,0,0-.24-.95A9.58,9.58,0,0,0,59.6,46.15,14.51,14.51,0,0,0,57.51,48c-.37.39-.69.76-1,1.11-.49.62-.84,1.14-1,1.45s-.18.3-.18.3a6.53,6.53,0,0,0-.07,1A6.69,6.69,0,0,0,56.5,55.83Z"/><path class="cls-7" d="M56.5,55.83q2.11.36,4.38.6a66.2,66.2,0,0,0,14.88.17L77,55.73c.61-.45,1.57-.22,2.32-.14a1.72,1.72,0,0,0,.8,0,.35.35,0,0,0,.12-.07.31.31,0,0,0,.09-.11.67.67,0,0,0,.07-.33.09.09,0,0,0,0,0c0-.64-.34-1.61-.29-1.68s0,0,0,0h0s-1.43.16-3.56.28c-1.47-.72-1.14-2.11-.36-2.39a5.87,5.87,0,0,0-1.63.7,7.75,7.75,0,0,0-.24-.95,12.85,12.85,0,0,1-2.69,1.84,7.8,7.8,0,0,1-3.08.84c-6.71.64-8-.87-9.49-2.68l-.26-.3A5.07,5.07,0,0,1,57.51,48c-.37.39-.69.76-1,1.11-.49.62-.84,1.14-1,1.45s-.18.3-.18.3a6.53,6.53,0,0,0-.07,1A6.69,6.69,0,0,0,56.5,55.83Z"/><path class="cls-8" d="M.87,13.75l12.05,2.92,49.75,12,42.79,10.36,13-1.63,2.7-.33A25.05,25.05,0,0,0,119.92,32h0c-1.24-3.49-3.66-7.58-8.19-8.18A14.09,14.09,0,0,0,102,25.84,11.7,11.7,0,0,0,99.46,28a1.85,1.85,0,0,0,.14-1h0c-.06-.35-.31-.68-.94-.77a2.38,2.38,0,0,0-2.08,1.14,4.62,4.62,0,0,0-.49.75c.06-.24,2.15-8-.49-15.3h0C93.66,7.49,89.18,2.37,79.48.63,71.22-.85,64.67.6,59.66,3.09A31.46,31.46,0,0,0,46.58,15.41a11.76,11.76,0,0,0-.41-1.54h0c-.5-1.52-1.52-3.61-3.32-3.62a5.6,5.6,0,0,0-3.6,1.27h0a5.13,5.13,0,0,0-.75.74,13.69,13.69,0,0,0,.1-4.64h0C38.11,4.44,36.21.71,30.15.09A16.32,16.32,0,0,0,19.54,2.66a21.47,21.47,0,0,0-6.12,5.92l-.1.15a1,1,0,0,0,0-.3h0a1,1,0,0,0-.59-.73h0a4,4,0,0,0-1.9-.32,5.16,5.16,0,0,0-2,.59,16.8,16.8,0,0,0-1.51.84A53,53,0,0,0,1.4,13.28Z"/><path class="cls-9" d="M35.7,28.45s-10.6,3.72-4.1,7.2,97,9.57,98.14,9.25-14.35-2.63-14.19-3.33,2.81-.38,5.52-3.8a.6.6,0,0,0,.1-.67h0A25.05,25.05,0,0,0,119.92,32h0s.81,2.46-4.57,1.94c-1.43-.14-10.26-1.77-11.35-2.18a5.24,5.24,0,0,1-2-1.23c-1.68-1.77-1.09-3.4,0-4.64A11.7,11.7,0,0,0,99.46,28a1.85,1.85,0,0,0,.14-1c0,.06-.23,3.08-2.29,2.52-.84-.23-.93-1.15-.73-2.15a4.62,4.62,0,0,0-.49.75c.06-.24,2.15-8-.49-15.3.09.37,1.73,8.35-13.54,7.17C66.43,18.83,55.34,9.75,59.66,3.09A31.46,31.46,0,0,0,46.58,15.41a11.76,11.76,0,0,0-.41-1.54c0,.1.47.8-1.28.81-4.13,0-5.72-3-5.64-3.16a5.13,5.13,0,0,0-.75.74,13.69,13.69,0,0,0,.1-4.64c0,.17.08,4.94-7.6,4.42S16.83,6.55,19.54,2.66h0a21.47,21.47,0,0,0-6.12,5.92c.35.67.37,1.49-1.54,1.56-3.28.12-3-2.17-3-2.17l-1.51.84A53,53,0,0,0,1.4,13.28l.11,0-.26.16C-7.59,19.33,35.7,28.45,35.7,28.45Z"/><path class="cls-10" d="M52.11,17.31c8.44-.32,33.74,6.75,32.46,7.91s5.48,1,5.13,1.73-2.2,1.88-.88,2.11,34.91,5.3,32.2,8.72-5.36,3.1-5.53,3.79,15.31,3,14.19,3.33S38,39.13,31.54,35.65s4.1-7.19,4.1-7.19-43.29-9.13-34.45-15S52.11,17.31,52.11,17.31Z"/><path class="cls-11" d="M86.74,25.86c2.13.19,5.25-1.85,2.42-2.94S84.31,25.65,86.74,25.86Z"/><path class="cls-12" d="M41.41,50.69c2,2,7.74,4,15.09,5.14q2.11.36,4.38.6a66.2,66.2,0,0,0,14.88.17c.69-.08,1.35-.19,1.95-.3a16.5,16.5,0,0,0,2.08-.53l.31-.21.21-.18c.17-.17.21-.3.11-.36h0l0,0c-1-.44-8.74-.51-8.74-.51s2.63-.41,2.18-1.15a7.64,7.64,0,0,0-2.23-.58c-2.71-.52-7.55-1.23-12.57-1.84l-2.22-.26-1.32-.15c-6-.65-11.59-1.06-13.52-.73a.71.71,0,0,0-.55.36A.65.65,0,0,0,41.41,50.69Z"/></g></g></svg>