<svg xmlns="http://www.w3.org/2000/svg" xmlns:xlink="http://www.w3.org/1999/xlink" viewBox="0 0 122.63 32.58"><defs><style>.cls-1{opacity:0.9;}.cls-2{fill:url(#Áåçûìÿííûé_ãðàäèåíò_51);}.cls-3{fill:url(#Áåçûìÿííûé_ãðàäèåíò_52);}.cls-4{fill:url(#Áåçûìÿííûé_ãðàäèåíò_51-2);}.cls-5{fill:url(#Áåçûìÿííûé_ãðàäèåíò_51-3);}.cls-6{fill:url(#Áåçûìÿííûé_ãðàäèåíò_51-4);}.cls-7{fill:url(#Áåçûìÿííûé_ãðàäèåíò_51-5);}</style><linearGradient id="Áåçûìÿííûé_ãðàäèåíò_51" x1="2064.87" y1="33.34" x2="2063.49" y2="5.39" gradientTransform="matrix(-1, 0, 0, 1, 2125.31, 0)" gradientUnits="userSpaceOnUse"><stop offset="0" stop-color="#c1cefc"/><stop offset="0.07" stop-color="#ccd7fd"/><stop offset="0.26" stop-color="#e3e9fe"/><stop offset="0.46" stop-color="#f3f5fe"/><stop offset="0.69" stop-color="#fcfdff"/><stop offset="0.99" stop-color="#fff"/></linearGradient><linearGradient id="Áåçûìÿííûé_ãðàäèåíò_52" x1="2063.91" y1="40.23" x2="2064.3" y2="-12.45" gradientTransform="matrix(-1, 0, 0, 1, 2125.31, 0)" gradientUnits="userSpaceOnUse"><stop offset="0" stop-color="#94a4e3"/><stop offset="0.11" stop-color="#afbbea"/><stop offset="0.25" stop-color="#ccd4f2"/><stop offset="0.4" stop-color="#e3e7f8"/><stop offset="0.56" stop-color="#f3f4fc"/><stop offset="0.74" stop-color="#fcfcfe"/><stop offset="0.99" stop-color="#fff"/></linearGradient><linearGradient id="Áåçûìÿííûé_ãðàäèåíò_51-2" x1="2079.06" y1="46.19" x2="2075.03" y2="29.35" xlink:href="#Áåçûìÿííûé_ãðàäèåíò_51"/><linearGradient id="Áåçûìÿííûé_ãðàäèåíò_51-3" x1="2099.12" y1="42.64" x2="2095.24" y2="26.44" xlink:href="#Áåçûìÿííûé_ãðàäèåíò_51"/><linearGradient id="Áåçûìÿííûé_ãðàäèåíò_51-4" x1="2054.78" y1="24.96" x2="2052.76" y2="6.39" xlink:href="#Áåçûìÿííûé_ãðàäèåíò_51"/><linearGradient id="Áåçûìÿííûé_ãðàäèåíò_51-5" x1="2152.59" y1="53.4" x2="2120.49" y2="21.16" xlink:href="#Áåçûìÿííûé_ãðàäèåíò_51"/></defs><g id="Layer_2" data-name="Layer 2"><g id="Ñëîé_1" data-name="Ñëîé 1"><g class="cls-1"><path class="cls-2" d="M103.67,22.22c-6.23-.63-6.61,2.62-6.61,2.62a33.41,33.41,0,0,0-3.16-4.38C89.87,15.6,82,8.25,70.23,6.66,56,4.73,52.47,10.16,53.79,14.31a19.94,19.94,0,0,0-6-3.35C40.33,8.75,40,12.53,40,12.53s-1.8-4.91-8.46-5.92a8.89,8.89,0,0,0-2.3-.09,5.07,5.07,0,0,0-.61.12,2,2,0,0,0-.14-.25C26.55,3,22.21-.18,12.75,0A23.54,23.54,0,0,0,0,4.18v28C23.15,33,52.54,33,53.37,28.1c.11-.63,69.26-1.07,69.26-1.07S109.91,22.84,103.67,22.22Z"/><path class="cls-3" d="M114.76,24.65c-1.75,1.22-5.25,2.58-11.63,1.46a12.51,12.51,0,0,1-5.66-2.22,2.32,2.32,0,0,0-.41.95,33.41,33.41,0,0,0-3.16-4.38c-.58,2.36-2.85,4.5-8.69,5.22-15,1.86-25.51-4.42-25.9-4.79.21.31,2.38,4-1.05,4.65-3.66.64-4.47-.94-4.47-.94h0l-1.54,2.07-.06,0,1.6-2.05c-.15,0-5.91,1.84-4.94-3.47-3.69,1.51-9.73-6.51-9.73-6.51s-.35,3.23-5.73,3.16c-2.79,0-3.86-1.42-4.24-2.75C28.87,18.6,28.44,29.77,0,29.93v2.29C23.15,33,52.54,33,53.37,28.1c.11-.63,69.26-1.07,69.26-1.07S119.05,25.85,114.76,24.65Z"/><path class="cls-4" d="M51.62,18.55c2.9-1.42,3.28,3.79,1.6,4.14S49.17,19.75,51.62,18.55Z"/><path class="cls-5" d="M30.06,7.65C32.33,6.29,39,8.82,38.7,12.43S25,10.66,30.06,7.65Z"/><path class="cls-6" d="M81.08,11.22c2.53,1.49,7.57,6.9-1.83,7.5S53.93,12,60.33,9.14,76.15,8.32,81.08,11.22Z"/><path class="cls-7" d="M28,11.9C27.54,7.67,24,2,16.3,1,11.46.33,3.45,5.2,0,9.86v6.69l.14.09C7.24,20.54,28.93,20.51,28,11.9Z"/></g></g></g></svg>