<svg xmlns="http://www.w3.org/2000/svg" xmlns:xlink="http://www.w3.org/1999/xlink" viewBox="0 0 251.71 80.1"><defs><style>.cls-1{isolation:isolate;}.cls-19,.cls-2,.cls-20,.cls-21,.cls-22,.cls-23,.cls-24,.cls-25,.cls-26,.cls-27,.cls-28,.cls-29,.cls-3,.cls-30,.cls-31,.cls-32,.cls-33,.cls-34,.cls-35,.cls-36,.cls-37,.cls-38,.cls-39,.cls-4,.cls-5,.cls-6,.cls-7,.cls-8,.cls-9{fill-rule:evenodd;}.cls-2{fill:url(#Áåçûìÿííûé_ãðàäèåíò_30);}.cls-3{fill:url(#Áåçûìÿííûé_ãðàäèåíò_30-2);}.cls-4{fill:url(#Áåçûìÿííûé_ãðàäèåíò_30-3);}.cls-14,.cls-15,.cls-18,.cls-25,.cls-29,.cls-5,.cls-7,.cls-9{fill:#5f2961;}.cls-14,.cls-5{opacity:0.3;}.cls-14,.cls-15,.cls-19,.cls-25,.cls-29,.cls-31,.cls-32,.cls-5,.cls-7{mix-blend-mode:multiply;}.cls-6{fill:url(#Áåçûìÿííûé_ãðàäèåíò_30-4);}.cls-15,.cls-7{opacity:0.5;}.cls-8{fill:url(#Áåçûìÿííûé_ãðàäèåíò_30-5);}.cls-10{fill:#a13b2d;}.cls-11{fill:url(#Áåçûìÿííûé_ãðàäèåíò_29);}.cls-12{fill:url(#Áåçûìÿííûé_ãðàäèåíò_32);}.cls-13{fill:url(#Áåçûìÿííûé_ãðàäèåíò_32-2);}.cls-16{fill:url(#Áåçûìÿííûé_ãðàäèåíò_32-3);}.cls-17{fill:url(#Áåçûìÿííûé_ãðàäèåíò_32-4);}.cls-19{fill:#954ca7;}.cls-19,.cls-31,.cls-32{opacity:0.4;}.cls-20{fill:url(#Áåçûìÿííûé_ãðàäèåíò_30-6);}.cls-21{fill:url(#Áåçûìÿííûé_ãðàäèåíò_30-7);}.cls-22{fill:url(#Áåçûìÿííûé_ãðàäèåíò_30-8);}.cls-23{fill:url(#Áåçûìÿííûé_ãðàäèåíò_30-9);}.cls-24{fill:url(#Áåçûìÿííûé_ãðàäèåíò_30-10);}.cls-25{opacity:0.2;}.cls-26{fill:url(#Áåçûìÿííûé_ãðàäèåíò_30-11);}.cls-27{fill:url(#Áåçûìÿííûé_ãðàäèåíò_30-12);}.cls-28{fill:url(#Áåçûìÿííûé_ãðàäèåíò_30-13);}.cls-29{opacity:0.37;}.cls-30{fill:url(#Áåçûìÿííûé_ãðàäèåíò_22);}.cls-31{fill:url(#Áåçûìÿííûé_ãðàäèåíò_15);}.cls-32{fill:url(#Áåçûìÿííûé_ãðàäèåíò_15-2);}.cls-33{fill:url(#Áåçûìÿííûé_ãðàäèåíò_30-14);}.cls-34{fill:url(#Áåçûìÿííûé_ãðàäèåíò_30-15);}.cls-35{fill:url(#Áåçûìÿííûé_ãðàäèåíò_30-16);}.cls-36{fill:url(#Áåçûìÿííûé_ãðàäèåíò_30-17);}.cls-37{fill:url(#Áåçûìÿííûé_ãðàäèåíò_30-18);}.cls-38{fill:url(#Áåçûìÿííûé_ãðàäèåíò_30-19);}.cls-39{fill:url(#Áåçûìÿííûé_ãðàäèåíò_30-20);}</style><linearGradient id="Áåçûìÿííûé_ãðàäèåíò_30" x1="-532.99" y1="-20.5" x2="-500.65" y2="56.78" gradientTransform="matrix(-1, 0, 0, 1, -385.13, 0)" gradientUnits="userSpaceOnUse"><stop offset="0" stop-color="#e7b05c"/><stop offset="0.6" stop-color="#b27857"/><stop offset="0.99" stop-color="#6d8980"/></linearGradient><linearGradient id="Áåçûìÿííûé_ãðàäèåíò_30-2" x1="-529.72" y1="34.79" x2="-529.72" y2="55.97" xlink:href="#Áåçûìÿííûé_ãðàäèåíò_30"/><linearGradient id="Áåçûìÿííûé_ãðàäèåíò_30-3" x1="-508.66" y1="39.97" x2="-508.66" y2="64.84" xlink:href="#Áåçûìÿííûé_ãðàäèåíò_30"/><linearGradient id="Áåçûìÿííûé_ãðàäèåíò_30-4" x1="-516.69" y1="-18.74" x2="-512.85" y2="49.51" xlink:href="#Áåçûìÿííûé_ãðàäèåíò_30"/><linearGradient id="Áåçûìÿííûé_ãðàäèåíò_30-5" x1="-511.45" y1="4.32" x2="-501.15" y2="34.13" xlink:href="#Áåçûìÿííûé_ãðàäèåíò_30"/><linearGradient id="Áåçûìÿííûé_ãðàäèåíò_29" x1="-379.56" y1="44.52" x2="-374.44" y2="38.51" gradientTransform="matrix(-1, 0, 0, 1, -385.13, 0)" gradientUnits="userSpaceOnUse"><stop offset="0" stop-color="#89a91b"/><stop offset="1" stop-color="#d0c11f"/></linearGradient><linearGradient id="Áåçûìÿííûé_ãðàäèåíò_32" x1="-440.47" y1="37.29" x2="-436.72" y2="59.11" gradientTransform="matrix(-1, 0, 0, 1, -385.13, 0)" gradientUnits="userSpaceOnUse"><stop offset="0" stop-color="#e7b05c"/><stop offset="0.6" stop-color="#b27857"/><stop offset="1" stop-color="#6d8980"/></linearGradient><linearGradient id="Áåçûìÿííûé_ãðàäèåíò_32-2" x1="-440.74" y1="32.54" x2="-437.19" y2="78.56" xlink:href="#Áåçûìÿííûé_ãðàäèåíò_32"/><linearGradient id="Áåçûìÿííûé_ãðàäèåíò_32-3" x1="-417.7" y1="56.11" x2="-414.18" y2="64.5" xlink:href="#Áåçûìÿííûé_ãðàäèåíò_32"/><linearGradient id="Áåçûìÿííûé_ãðàäèåíò_32-4" x1="-402.94" y1="54" x2="-383.06" y2="78.37" xlink:href="#Áåçûìÿííûé_ãðàäèåíò_32"/><linearGradient id="Áåçûìÿííûé_ãðàäèåíò_30-6" x1="-576.49" y1="14.58" x2="-545.74" y2="63.33" xlink:href="#Áåçûìÿííûé_ãðàäèåíò_30"/><linearGradient id="Áåçûìÿííûé_ãðàäèåíò_30-7" x1="-589.97" y1="3.35" x2="-557.63" y2="80.62" xlink:href="#Áåçûìÿííûé_ãðàäèåíò_30"/><linearGradient id="Áåçûìÿííûé_ãðàäèåíò_30-8" x1="-581.37" y1="20.84" x2="-575.17" y2="72.86" xlink:href="#Áåçûìÿííûé_ãðàäèåíò_30"/><linearGradient id="Áåçûìÿííûé_ãðàäèåíò_30-9" x1="-583.56" y1="12.04" x2="-557.36" y2="82.66" xlink:href="#Áåçûìÿííûé_ãðàäèåíò_30"/><linearGradient id="Áåçûìÿííûé_ãðàäèåíò_30-10" x1="-605.97" y1="37.02" x2="-596.52" y2="71.2" xlink:href="#Áåçûìÿííûé_ãðàäèåíò_30"/><linearGradient id="Áåçûìÿííûé_ãðàäèåíò_30-11" x1="-536.03" y1="28.45" x2="-529.88" y2="59.09" xlink:href="#Áåçûìÿííûé_ãðàäèåíò_30"/><linearGradient id="Áåçûìÿííûé_ãðàäèåíò_30-12" x1="-527.83" y1="44.51" x2="-505.88" y2="66.98" xlink:href="#Áåçûìÿííûé_ãðàäèåíò_30"/><linearGradient id="Áåçûìÿííûé_ãðàäèåíò_30-13" x1="-537.18" y1="35.58" x2="-515.31" y2="67.93" xlink:href="#Áåçûìÿííûé_ãðàäèåíò_30"/><linearGradient id="Áåçûìÿííûé_ãðàäèåíò_22" x1="-571" y1="52.38" x2="-578.07" y2="38.59" gradientTransform="matrix(-1, 0, 0, 1, -385.13, 0)" gradientUnits="userSpaceOnUse"><stop offset="0" stop-color="#88a915"/><stop offset="1" stop-color="#d0c117"/></linearGradient><linearGradient id="Áåçûìÿííûé_ãðàäèåíò_15" x1="-578.98" y1="41.32" x2="-579.17" y2="40.99" gradientTransform="matrix(-1, 0, 0, 1, -385.13, 0)" gradientUnits="userSpaceOnUse"><stop offset="0" stop-color="#b1494a"/><stop offset="1" stop-color="#f1abbd"/></linearGradient><linearGradient id="Áåçûìÿííûé_ãðàäèåíò_15-2" x1="-570.33" y1="52.27" x2="-580.31" y2="34.93" xlink:href="#Áåçûìÿííûé_ãðàäèåíò_15"/><linearGradient id="Áåçûìÿííûé_ãðàäèåíò_30-14" x1="-493.39" y1="34.44" x2="-492.12" y2="74.89" xlink:href="#Áåçûìÿííûé_ãðàäèåíò_30"/><linearGradient id="Áåçûìÿííûé_ãðàäèåíò_30-15" x1="-513.74" y1="35.19" x2="-509.51" y2="62.68" xlink:href="#Áåçûìÿííûé_ãðàäèåíò_30"/><linearGradient id="Áåçûìÿííûé_ãðàäèåíò_30-16" x1="-511.56" y1="18.57" x2="-511.56" y2="76.58" xlink:href="#Áåçûìÿííûé_ãðàäèåíò_30"/><linearGradient id="Áåçûìÿííûé_ãðàäèåíò_30-17" x1="-467.09" y1="30.86" x2="-452.69" y2="78.3" xlink:href="#Áåçûìÿííûé_ãðàäèåíò_30"/><linearGradient id="Áåçûìÿííûé_ãðàäèåíò_30-18" x1="-522.29" y1="18.74" x2="-492.85" y2="107.9" xlink:href="#Áåçûìÿííûé_ãðàäèåíò_30"/><linearGradient id="Áåçûìÿííûé_ãðàäèåíò_30-19" x1="-504.33" y1="58.43" x2="-498.18" y2="77.8" xlink:href="#Áåçûìÿííûé_ãðàäèåíò_30"/><linearGradient id="Áåçûìÿííûé_ãðàäèåíò_30-20" x1="-482.12" y1="35.42" x2="-467.71" y2="82.86" xlink:href="#Áåçûìÿííûé_ãðàäèåíò_30"/></defs><g class="cls-1"><g id="Layer_2" data-name="Layer 2"><g id="Ñëîé_1" data-name="Ñëîé 1"><polygon class="cls-2" points="95.96 59.71 95.96 59.77 112.16 57.4 134.87 49.64 134.88 49.63 142.12 47.17 142.82 46.93 142.91 46.9 147.73 45.26 150.74 44.23 151.27 44.05 154.3 43.02 154.22 43.02 154.22 39.01 154.76 36.91 155.06 35.75 155.14 35.44 155.24 35.01 158.38 22.83 158.46 22.54 158.46 22.53 158.64 21.82 163.36 3.46 163.36 0 158.96 0 146.82 4.15 146.81 4.15 142.15 5.75 141.58 5.95 132.25 9.15 111.66 16.95 109.09 17.93 105.99 19.1 104.16 19.8 99.34 21.62 99.16 21.75 99.14 21.75 96.3 23.75 95.96 59.71"/><polygon class="cls-3" points="142.13 47.14 134.88 49.63 142.12 47.17 142.82 46.93 142.91 46.9 147.73 45.26 150.74 44.23 151.27 44.05 154.3 43.02 154.22 43.02 151.24 44.03 150.71 44.21 147.69 45.25 142.91 46.88 142.83 46.9 142.13 47.14"/><polygon class="cls-4" points="134.88 49.63 112.16 57.4 134.87 49.64 134.88 49.63"/><path class="cls-5" d="M96,59.71v.06l16.2-2.37,22.71-7.76h0l7.25-2.49.7-.24.08,0,4.78-1.63,3-1,.53-.18,3-1V39l.54-2.1.3-1.16.08-.31.1-.43,3.14-12.18.08-.29h0l.18-.71,4.72-18.36V0H159L146.82,4.15h0l-4.66,1.61-.57.19-9.33,3.2L111.66,17l-2.57,1L106,19.1l-1.83.7-4.82,1.82-.18.14,1.71.6,7.87,2.77.06,1.39L96.3,23.75Z"/><polygon class="cls-6" points="96.3 23.75 97.16 23.49 100.87 22.36 104.3 21.33 106.05 20.79 109.16 19.85 109.32 19.81 132.98 12.64 146.28 7.11 146.29 7.11 147.29 6.69 154.04 3.87 163.36 0 158.96 0 146.82 4.15 146.81 4.15 142.15 5.75 141.58 5.95 132.25 9.15 111.66 16.95 109.09 17.93 105.99 19.1 104.16 19.8 99.34 21.62 99.16 21.75 99.14 21.75 96.3 23.75"/><polygon class="cls-5" points="95.96 59.71 99.86 59.14 99.31 54.81 100.48 48.7 100.64 55.18 99.75 55.25 99.86 59.14 99.87 59.14 103.82 58.58 112.16 57.4 134.87 49.64 134.88 49.63 142.12 47.17 142.82 46.93 142.91 46.9 147.73 45.26 150.74 44.23 151.27 44.05 154.3 43.02 154.22 43.02 154.22 40.4 152.76 40.77 149.83 41.52 149.25 41.67 150.12 34.86 150.19 34.26 150.43 32.37 154.04 3.87 147.29 6.69 146.29 7.11 146.28 7.11 132.98 12.64 131.6 13.21 128.27 50.45 127.38 43.79 126.28 43.79 126.28 48.18 125.16 48.83 122.04 21.5 121.79 19.25 121.78 19.2 111.81 21.36 111.82 21.64 112.57 54.74 111.66 54.74 108.32 20.82 109.16 19.85 111.66 16.95 109.09 17.93 105.99 19.1 104.16 19.8 99.34 21.62 99.16 21.75 99.14 21.75 96.3 23.75 95.96 59.71"/><polygon class="cls-7" points="143.15 44 142.94 46.53 142.95 46.48 143.22 44.05 143.39 42.45 143.54 41.09 143.58 40.77 147.29 6.69 142.15 5.75 141.58 5.95 146.29 7.01 146.28 7.11 143.43 40.77 143.41 41.03 143.28 42.44 143.15 44"/><polygon class="cls-8" points="111.81 21.64 127.75 21.42 130.41 17.43 111.81 21.36 111.81 21.64"/><polygon class="cls-9" points="96.3 23.75 99.15 21.76 98.83 21.64 96.3 23.75"/><polygon class="cls-7" points="130.41 17.43 128.27 50.45 131.24 16.6 122.89 19.02 130.41 17.43"/><polygon class="cls-7" points="103.82 58.58 100.71 37.15 100.2 37.15 100.64 55.18 99.75 55.25 99.86 59.15 103.82 58.58"/><polygon class="cls-10" points="1.01 55.22 2.6 57.38 8.95 59.55 1.8 57.38 0.21 54.79 1.01 55.22"/><path class="cls-11" d="M0,53a25.81,25.81,0,0,1,2.66.34s-3-1.08-1.5-1.9,4.51,2.45,4.51,2.45l2.5,2.17S3.91,56,0,55.71Z"/><polygon class="cls-12" points="4.27 37.96 9.38 40.25 12.14 41.49 39.25 56.35 44.31 59.12 56.59 65.85 61.28 68.42 75.77 76.37 75.87 76.42 75.87 76.37 82.03 76.37 86.97 67.59 102.27 40.32 106.07 38.48 74.47 33.42 62.65 34.19 48.8 30.61 37.3 34.26 15.66 36.69 4.27 37.96"/><polygon class="cls-13" points="4.27 37.96 4.39 76.37 75.77 76.37 75.87 76.42 75.87 76.37 95.14 76.37 98.07 63.78 100.5 62.47 106.07 38.48 88.13 39.63 85.51 39.79 85.51 40.58 62.67 40.58 62.29 40.5 59.87 40.05 45.15 40.05 45.01 40.06 41.24 40.31 41.08 40.32 37.9 40.21 9.39 39.27 9.1 39.27 4.27 37.96"/><polygon class="cls-14" points="4.27 37.96 4.39 76.37 75.77 76.37 75.87 76.42 75.87 76.37 95.14 76.37 98.07 63.78 100.5 62.47 106.07 38.48 88.13 39.63 85.51 39.79 85.51 40.58 62.67 40.58 62.29 40.5 59.87 40.05 45.15 40.05 45.01 40.06 41.24 40.31 41.08 40.32 37.9 40.21 9.39 39.27 9.1 39.27 4.27 37.96"/><polygon class="cls-14" points="80.19 40.58 85.51 40.58 85.51 39.79 88.13 39.63 106.07 38.48 100.5 62.47 98.07 63.78 95.14 76.37 80.19 76.37 80.19 40.58"/><polygon class="cls-15" points="75.81 72.12 75.87 76.37 87.13 76.37 86.97 67.59 85.52 39.8 85.51 39.79 85.51 40.58 85.82 59.25 85.93 66.33 75.81 72.12"/><polygon class="cls-14" points="50.65 40.1 56.59 65.85 59.02 76.37 60.99 76.37 61.19 71 61.28 68.42 62.29 40.51 60.23 40.12 59.87 40.05 50.65 40.1"/><polygon class="cls-14" points="4.27 37.96 4.39 76.37 8.57 76.37 8.9 61.64 8.91 61.28 8.94 59.94 9.38 40.25 9.39 39.27 9.1 39.27 4.27 37.96"/><polygon class="cls-14" points="15.66 36.68 50.69 35.36 48.8 30.6 37.3 34.26 15.66 36.68"/><polygon class="cls-14" points="76.59 37.05 69.03 36.68 74.14 35.72 76.59 37.05"/><polygon class="cls-15" points="85.93 66.33 64.71 68.27 64.71 69.61 75.81 72.12 85.93 66.33"/><polygon class="cls-16" points="41.24 40.3 40.3 41.26 37.3 39.95 41.24 40.3"/><polygon class="cls-15" points="8.93 59.94 19.31 62.63 8.9 61.29 6.51 61.29 8.93 59.94"/><polygon class="cls-17" points="15.87 62.19 8.89 61.63 7.12 61.29 8.9 61.29 15.87 62.19"/><polygon class="cls-14" points="64.71 68.27 68.37 45.79 70.92 45.79 72.81 56.56 85.81 59.25 85.93 66.33 64.71 68.27"/><polygon class="cls-14" points="100.5 62.48 91.06 63.36 98.07 63.78 100.5 62.48"/><polygon class="cls-14" points="37.53 76.37 46.16 76.37 44.31 59.12 43.99 56.09 41.24 56.48 40.2 56.09 39.63 50.47 37.53 76.37"/><polygon class="cls-14" points="39.41 50.07 40.3 41.26 37.88 40.2 39.41 50.07"/><polygon class="cls-18" points="75.87 76.37 75.77 76.37 75.87 76.42 75.87 76.37"/><polygon class="cls-15" points="104.21 46.48 93.01 45.9 85.52 43.82 85.52 44.08 93.01 46.41 104.21 46.48"/><polygon class="cls-14" points="60.23 40.12 60.23 70.27 61.19 71 61.28 68.42 62.29 40.51 60.23 40.12"/><polygon class="cls-15" points="94.88 76.37 87.13 75.67 87.13 75.08 75.77 75.72 58.87 75.72 58.37 73.56 46.19 74.34 46.19 75.73 4.05 76.37 94.88 76.37"/><polygon class="cls-19" points="0 73.05 16.65 69.44 40.88 69.58 41.45 68.29 94.65 68.29 251.1 69.58 152.9 71.4 151.15 76.75 21.45 80.1 0 79.86 0 73.05"/><polygon class="cls-20" points="216.63 26.38 169.01 19.26 154.43 21.25 198.06 30.54 216.63 26.38"/><polygon class="cls-21" points="149.65 38.5 225.97 55.4 224.89 52.06 224.5 50.83 223.86 48.86 223.69 48.32 216.63 26.38 204.55 26.38 191.34 25.13 162.86 22.14 154.43 21.25 152.35 28.76 151.97 30.13 151.97 30.13 151.12 33.18 150.95 33.8 150.88 34.05 149.65 38.5"/><polygon class="cls-22" points="130.96 54.3 131.3 57.88 132.33 69.03 132.39 69.64 251.71 69.64 240.94 58.33 239.57 55.4 239.57 52.89 229.84 52.89 228.47 51.79 224.5 50.83 179.27 39.95 177.88 39.62 171.29 38.03 171.29 38.03 170.3 37.8 170.3 37.8 156.41 34.45 151.12 33.18 146.23 32.01 143.95 38.96 139.17 38.96 134.05 48.54 133.21 50.11 130.96 54.3"/><path class="cls-5" d="M131,54.31l.33,3.44v.13l.14,1.5.59,6.36.26,2.86,0,.43.06.61H251.71L240.94,58.33l-1.37-2.93V52.89h-9.73l-1.36-1.1-4.62-2.93-.17-.54-4.38-.71-4.2-.69,0-.11,4.24.8-2.68-7.45-3.71.2-.41-1.23,6.8-1.42-7.22.17L211,34.63,182.8,27.69v-.6l17,3.06h0l5.87,1.05L205.15,29l-.6-2.57L182.8,24.15l-14.48-1.48-5.46-.56-5.68-.58-2.75-.28-2.08,7.51L152,30.13l-2.46.8L146.23,32,144,39h-4.78l-4.52,8.47h0l-.59,1.1-.84,1.57-.67,1.25Zm60.95-22.57-6.95-1-12.16-1.8-.4-.06.3-.17,2-1.11,8.11,1.79.65.14,8.46,1.87Z"/><path class="cls-23" d="M146.23,32l3.87,1.7.78.35,12,5.26v.8l1.6.57,60.43,11.38,1.88.35,1.7-.62-4.61-2.93-8.75-1.94h0L161.25,35h0L161,35l-.08,0-.1,0-.14,0-.15,0-.28-.07-.18,0H160l-.16,0-.18,0-.27-.06-.19,0-.3-.07-.41-.09-.19,0h0l-.2,0-.33-.07-.46-.1-.23,0-.35-.08-.11,0-.24-.06-.11,0-.23-.05-.13,0-.23-.05-2.19-.48-.19-.05-.72-.16-.16,0-1.14-.25.73-2.69h0Z"/><polygon class="cls-7" points="162.86 40.11 158.08 69.64 161.81 38.85 162.86 39.31 162.86 40.11"/><path class="cls-5" d="M181.24,43.84l.55,1.78,3.29,10.7,1.25,0,.16,2,.79,10.19v.08l0,.34h0v.1l0,.47s2.27.12,5.61.12h46.65s0,0,0-.16-.11-.43-.22-.78v0c-.42-1.46-1.26-4.25-1.87-6.24v0s0,0,0,0l-.67-2.18-3-.77-39.51-10c0-.38-.07-.74-.1-1.07-.13-1.31-.2-2.12-.2-2.12Zm43.93,18.54-30.26-6.1c-.15-1.73-.31-3.41-.44-4.89Z"/><polygon class="cls-24" points="239.57 52.89 236.79 60.16 194.28 49.43 214.81 53.95 217.48 54.12 227.73 55.4 229.84 52.89 239.57 52.89"/><polygon class="cls-5" points="130.96 54.3 131.3 57.88 132.33 69.03 132.39 69.64 146.8 69.64 146.8 54.24 148.62 54.24 148.62 52.41 157.11 47.97 157.11 45.45 147.1 41.09 142.22 38.96 139.17 38.96 134.05 48.54 133.21 50.11 130.96 54.3"/><polygon class="cls-7" points="162.86 39.31 173.41 37.71 172.77 37.49 161.81 38.85 162.86 39.31"/><path class="cls-25" d="M162.86,22.11S161.3,35,161.25,35l-10-2.21,3.19-11.57Z"/><polygon class="cls-25" points="237.88 61.89 241.19 68.93 241.52 69.64 251.71 69.64 240.94 58.33 237.88 61.89"/><polygon class="cls-7" points="225.17 69.64 225.17 62.38 194.47 51.39 225.46 61.87 225.97 62.61 225.17 69.64"/><polygon class="cls-5" points="173.23 69.64 180.29 69.64 180.26 69.21 180.12 67.28 179.89 63.99 179.38 56.64 177.97 47.29 177.97 47.28 177.58 44.68 177.34 43.1 179.27 39.95 179.78 39.12 179.83 39.03 178.54 38.85 178.54 38.85 177.88 39.62 175.22 42.7 175.11 44.14 173.62 64.3 173.62 64.3 173.58 64.83 173.41 67.23 173.41 67.23 173.23 69.64"/><polygon class="cls-26" points="139.17 38.96 140.66 40.32 142.93 42.39 157.11 45.45 148.63 41.27 143.95 38.96 139.17 38.96"/><path class="cls-5" d="M139.17,39l1.49,1.36,6.44.77,1.53.18,1.47-7.57.85.11,5.46.64,4.84.58h0L161,35l-.08,0-.1,0-.14,0-.15,0-.28-.07-.18,0-.39-.08-.27-.06-.19,0-.42-.1-.29-.06-.19,0h0l-.2,0-.33-.07-.46-.1-.23,0-.35-.08-.35-.08-.11,0-.23-.05-.13,0-.23-.05-2.19-.48-.19-.05-.72-.16-.16,0-1.14-.25,1.12-4.05h0L152,30.13h0L146.23,32,144,39Z"/><polygon class="cls-27" points="132.33 48.54 134.05 48.54 142.36 52.41 130.51 49.43 132.33 48.54"/><polygon class="cls-28" points="130.51 49.43 130.96 54.3 131.3 57.88 132.33 69.03 132.39 69.64 141.19 69.64 141.26 68.64 141.81 60.49 142.36 52.41 138.3 51.39 133.21 50.11 130.51 49.43"/><polygon class="cls-29" points="130.51 49.43 130.96 54.3 131.3 57.88 132.33 69.03 132.39 69.64 141.19 69.64 141.26 68.64 141.81 60.49 139.19 60.16 138.3 51.39 133.21 50.11 130.51 49.43"/><polygon class="cls-25" points="141.26 68.64 141.19 69.64 144.69 69.64 144.04 52.41 140.5 51.06 142.93 42.39 142.36 41.87 140.03 51.33 142.36 52.41 141.81 60.49 141.26 68.64"/><polygon class="cls-25" points="182.79 27.09 182.79 29.36 174.69 27.57 172.4 28.85 173.41 37.71 168.04 36.53 168.32 22.67 182.79 24.15 182.79 27.09"/><path class="cls-7" d="M132,65.64l.31,3.39.06.61H251.1l-10-.71h0l-3.3-7-.41.49v0l1.87,6.24v0l-14.13.42h0L225.13,67l-37.9,1.53s.36.41,0,.43h0c-.35,0-6.3.22-7,.25h-.07l-.07-1.93-.29-8.58-1.86-11.41h0l1.24,11.55L179.29,69l-5.93-.17.22-4.53h0l-.82,4.24-14.64.57h0l.34-1.94h-.11l-11.57.45V68.7l-5-.13.81-16.16h-.27l-.54,8.08-.56,8.15-8-.4Z"/><path class="cls-30" d="M178.79,39.91s12.71,4.19,25.36,4.6c0,0-1.3-.94-2.91-2-2-1.25-4.35-2.63-5.45-2.63-2,0-2,1-2,1s-9-7-12-6a3.75,3.75,0,0,0-1.81,1.3h0A6.8,6.8,0,0,0,178.79,39.91Z"/><path class="cls-31" d="M193.81,40.94a4,4,0,0,0,.3.37A1.77,1.77,0,0,0,193.81,40.94Z"/><path class="cls-32" d="M178.79,39.91s12.71,4.19,25.36,4.6c0,0-1.3-.94-2.91-2-.18.44-.72.84-2,1a6,6,0,0,1-5.1-2.18c.4.59.74,1.56-1.35,1.56-3,0-13.6-3.38-12.81-6.69A6.8,6.8,0,0,0,178.79,39.91Z"/><polygon class="cls-33" points="55.52 76.72 151.19 76.72 159.28 46.72 157.99 41.11 144.85 48.21 101.79 59.22 94.86 57.69 94.86 63.45 82.24 61.45 79 56.16 65.73 56.16 65.73 56.16 56.48 74.79 55.52 76.72"/><polygon class="cls-34" points="94.86 57.69 101.79 59.22 144.85 48.21 157.99 41.11 153.13 41.11 150.28 42.08 149.78 42.25 146.89 43.24 142.32 44.8 142.25 44.82 141.58 45.05 134.65 47.43 112.94 54.85 104.96 55.98 101.18 56.52 97.46 57.06 97.46 57.12 97.45 57.69 94.86 57.69"/><path class="cls-5" d="M55.52,76.72h95.67l.14-.53,1.77-6.55.23-.87.39-1.42,5.56-20.63-2.17.49-11.34,2.55-.92-1.55-43.06,11-6.93-1.53v5.76l-1.16-.18h0L82.52,61.49l-.28,0L79,56.16H65.73L56.48,74.79h0Z"/><polygon class="cls-35" points="94.86 57.69 101.79 59.22 144.85 48.21 157.99 41.11 153.13 41.11 150.28 42.08 149.78 42.25 146.89 43.24 142.32 44.8 142.25 44.82 141.58 45.05 134.65 47.43 112.94 54.85 97.46 57.12 94.86 57.69"/><polygon class="cls-36" points="65.73 56.16 72 64.45 81.03 62.08 79 56.16 65.73 56.16"/><polygon class="cls-37" points="139.48 56.52 107.29 61.34 106.16 62.08 140.75 58.38 139.48 56.52"/><path class="cls-5" d="M110.48,76.72h0l.54-7h0l.1-1.3.12-1.5.4,0h.06L122,66.33l-.77,2.18-2.58,7.26-.34,1H132.6l.41-.93,4.21-9.46,2.7-6.08.83-1.87-1.71.18-7.6.82-25.28,2.7-1.87,11.41-.4,2.41-.13.82Z"/><polygon class="cls-38" points="122.13 64.45 111.77 66.31 111.24 66.93 121.94 66.33 122.13 64.45"/><polygon class="cls-5" points="79 56.16 81.03 62.08 81.41 65.69 82.46 75.63 82.58 76.72 103.75 76.72 104.28 73.49 106.16 62.08 101.79 66.64 101.79 59.22 94.86 57.69 94.86 63.45 82.24 61.45 79 56.16"/><path class="cls-5" d="M97.46,57.06v.06l15.48-2.27L105,56l-3.78.54Z"/><path class="cls-5" d="M55.52,76.72H71.86l0-.54c.2-4.17.35-11,.35-11l-6.51-9h0L56.48,74.79h0Z"/><polygon class="cls-5" points="141.58 45.05 134.65 47.43 141.57 45.08 142.24 44.85 142.32 44.82 146.93 43.25 149.81 42.27 150.31 42.1 153.21 41.11 153.13 41.11 150.28 42.08 149.78 42.25 146.89 43.24 142.32 44.8 142.25 44.82 141.58 45.05"/><polygon class="cls-5" points="134.65 47.43 112.94 54.85 134.64 47.44 134.65 47.43"/><polygon class="cls-7" points="55.52 76.72 110.48 76.72 110.48 76.71 111.7 66.9 111.77 66.31 109.83 75.18 102.28 76.09 101.57 73.06 101.79 66.64 94.86 63.45 101.08 70.77 101.08 76.06 83.25 76.33 82.46 75.63 71.89 76.18 67.05 75.53 70.23 63.19 67.23 70.7 63.45 75.42 56.48 74.79 56.47 74.79 55.52 76.72"/><polygon class="cls-7" points="110.48 76.72 151.19 76.72 143.63 75.88 145.76 49.76 144.85 48.21 140.04 75.7 133.01 75.79 137.22 66.33 132.07 75.53 123.46 75.88 124.31 73.34 123.95 73.2 122.13 75.74 118.6 75.77 110.61 75.66 110.48 76.71 110.48 76.72"/><path class="cls-39" d="M93.69,63.26l.9,1.63S83,64.16,83,64.08s-.52-2.59-.52-2.59Z"/></g></g></g></svg>