<svg xmlns="http://www.w3.org/2000/svg" xmlns:xlink="http://www.w3.org/1999/xlink" viewBox="0 0 513.56 121.13"><defs><style>.cls-1{isolation:isolate;}.cls-2{fill:url(#Áåçûìÿííûé_ãðàäèåíò_301);}.cls-3,.cls-4,.cls-5,.cls-6{fill-rule:evenodd;opacity:0.7;mix-blend-mode:screen;}.cls-3{fill:url(#Áåçûìÿííûé_ãðàäèåíò_85);}.cls-4{fill:url(#Áåçûìÿííûé_ãðàäèåíò_85-2);}.cls-5{fill:url(#Áåçûìÿííûé_ãðàäèåíò_85-3);}.cls-6{fill:url(#Áåçûìÿííûé_ãðàäèåíò_85-4);}</style><linearGradient id="Áåçûìÿííûé_ãðàäèåíò_301" x1="257.17" y1="8.05" x2="257.17" y2="190.86" gradientUnits="userSpaceOnUse"><stop offset="0" stop-color="#007ad4"/><stop offset="0.16" stop-color="#007dd4"/><stop offset="0.29" stop-color="#0088d3"/><stop offset="0.41" stop-color="#0099d2"/><stop offset="0.53" stop-color="#00b1d1"/><stop offset="0.62" stop-color="#00cbcf"/><stop offset="1" stop-color="#00fffb"/></linearGradient><linearGradient id="Áåçûìÿííûé_ãðàäèåíò_85" x1="255.86" y1="59.08" x2="257.61" y2="-57.5" gradientUnits="userSpaceOnUse"><stop offset="0.07"/><stop offset="0.14" stop-color="#202020"/><stop offset="0.29" stop-color="#636363"/><stop offset="0.44" stop-color="#9b9b9b"/><stop offset="0.57" stop-color="#c6c6c6"/><stop offset="0.69" stop-color="#e5e5e5"/><stop offset="0.79" stop-color="#f8f8f8"/><stop offset="0.86" stop-color="#fff"/></linearGradient><linearGradient id="Áåçûìÿííûé_ãðàäèåíò_85-2" x1="255.93" y1="104.74" x2="257.74" y2="-15.9" xlink:href="#Áåçûìÿííûé_ãðàäèåíò_85"/><linearGradient id="Áåçûìÿííûé_ãðàäèåíò_85-3" x1="255.98" y1="81.81" x2="257.75" y2="-35.88" xlink:href="#Áåçûìÿííûé_ãðàäèåíò_85"/><linearGradient id="Áåçûìÿííûé_ãðàäèåíò_85-4" x1="256.34" y1="22.42" x2="256.34" y2="-20.91" xlink:href="#Áåçûìÿííûé_ãðàäèåíò_85"/></defs><g class="cls-1"><g id="Layer_2" data-name="Layer 2"><g id="Ñëîé_1" data-name="Ñëîé 1"><path class="cls-2" d="M513.46,0H.77V121.13H513.56q-.45-14.89-.1-30.13Z"/><polygon class="cls-3" points="0 24.5 0 26.85 512.68 29.82 512.68 23.23 0 24.5"/><path class="cls-4" d="M0,80v2l512.53,2.47c0-1.82.05-3.65.09-5.48Z"/><polygon class="cls-5" points="0 56.95 0 58.72 512.68 58.52 512.68 56.62 0 56.95"/><polygon class="cls-6" points="0 0 0 9.69 512.68 8.44 512.68 0 0 0"/></g></g></g></svg>