<svg xmlns="http://www.w3.org/2000/svg" xmlns:xlink="http://www.w3.org/1999/xlink" viewBox="0 0 29.53 17.49"><defs><style>.cls-1{fill:url(#linear-gradient);}.cls-2{fill:#1e0b0c;}.cls-3{fill:url(#linear-gradient-2);}.cls-4{fill:url(#linear-gradient-3);}.cls-5{fill:url(#linear-gradient-4);}</style><linearGradient id="linear-gradient" x1="186.42" y1="2.61" x2="199.03" y2="13.95" gradientTransform="translate(-182.8)" gradientUnits="userSpaceOnUse"><stop offset="0.05" stop-color="#f4f6f7"/><stop offset="0.63" stop-color="#d9d8d7"/><stop offset="0.89" stop-color="#b7b7b7"/></linearGradient><linearGradient id="linear-gradient-2" x1="195.18" y1="12.65" x2="197.11" y2="16.57" gradientTransform="translate(-182.8)" gradientUnits="userSpaceOnUse"><stop offset="0" stop-color="#fff"/><stop offset="1" stop-color="#f4f6f7"/></linearGradient><linearGradient id="linear-gradient-3" x1="199.8" y1="8.68" x2="205.57" y2="15.44" gradientTransform="translate(-182.8)" gradientUnits="userSpaceOnUse"><stop offset="0" stop-color="#f7f9fa"/><stop offset="0.61" stop-color="#d9d8d7"/><stop offset="0.77" stop-color="#d5d4d3"/><stop offset="0.94" stop-color="#c8c7c7"/><stop offset="1" stop-color="#c2c1c1"/></linearGradient><linearGradient id="linear-gradient-4" x1="188.7" y1="12.82" x2="190.04" y2="14.39" gradientTransform="translate(-181.29 13.47) rotate(-3.08)" gradientUnits="userSpaceOnUse"><stop offset="0" stop-color="#4b3c3d"/><stop offset="1" stop-color="#a59d9e"/></linearGradient></defs><g id="Layer_2" data-name="Layer 2"><g id="Layer_1-2" data-name="Layer 1"><path class="cls-1" d="M11,14.27A35.47,35.47,0,0,1,8.06,9C7.33,7.1,7.86,7,6.7,5.84S-.71,1,.07,0C.46-.43,10.24,4.58,11.79,5.41s2,1,3,3.2,1.92,4,1.92,4Z"/><path class="cls-2" d="M5.8,2.38C3,1,.27-.21.07,0-.3.47.92,1.55,2.43,2.69A32.17,32.17,0,0,1,5.8,2.38Z"/><path class="cls-3" d="M17.85,13.3c-.78,0-3.2-.67-5.33,0s-3.68,2.33-4.61,2.48-4.55.53-3.39,1.06,4.8,0,5.77,0,6.25.58,7.56-.05,1.64-1.16,2.32-1.26a5.52,5.52,0,0,1,1.89-.14c.34.14,2,.68,1.94.43s-1.74-1.21-1.84-1.55A2.31,2.31,0,0,0,19.78,13Z"/><path class="cls-4" d="M29.47,3.28c-.29-.63-4.21,2.08-5.91,3.05S17.75,8.75,16.44,9.5c-.86.49-2,2.1-3.13,3.61-.57.78-1.13,1.53-1.62,2.08-1,1.09-3.21,1.63-4.63,1.87,1.31,0,2.69-.22,3.23-.22,1,0,6.25.58,7.56-.05s1.64-1.16,2.32-1.26a5.52,5.52,0,0,1,1.89-.14,7.63,7.63,0,0,0,1.86.49,2,2,0,0,0-.07-.23c-.42-.37-1.61-1.09-1.69-1.38a2,2,0,0,0-.56-.73,2.62,2.62,0,0,0-2.09.12c-.41.15-.58.06-.41-.56A9,9,0,0,1,19.54,12c.73-1.65,6.59-4.75,8-5.52S29.76,3.91,29.47,3.28Z"/><path class="cls-2" d="M27.54,6.43c1.4-.78,2.22-2.52,1.93-3.15-.15-.33-1.27.24-2.56,1a11.23,11.23,0,0,1,.51,2.21Z"/><path class="cls-2" d="M22.63,14.74c.13.4-.24.59-.53.66a7.34,7.34,0,0,0,1.82.48,2,2,0,0,0-.07-.23C23.59,15.42,23,15.05,22.63,14.74Z"/><path class="cls-2" d="M21.45,14.43a.16.16,0,0,1-.15.16.16.16,0,1,1,0-.32A.16.16,0,0,1,21.45,14.43Z"/><path class="cls-5" d="M10.66,16.61c0-.26-.94.25-1.39.34s-2.64.07-2.68.36,1.71.13,2.46.11A2.39,2.39,0,0,0,10.66,16.61Z"/></g></g></svg>