<svg xmlns="http://www.w3.org/2000/svg" xmlns:xlink="http://www.w3.org/1999/xlink" viewBox="0 0 345.54 29.08"><defs><style>.cls-1{isolation:isolate;}.cls-2{opacity:0.5;fill:url(#Áåçûìÿííûé_ãðàäèåíò_85);}.cls-2,.cls-3,.cls-4{mix-blend-mode:screen;}.cls-3,.cls-4{fill-rule:evenodd;opacity:0.7;}.cls-3{fill:url(#Áåçûìÿííûé_ãðàäèåíò_85-2);}.cls-4{fill:url(#Áåçûìÿííûé_ãðàäèåíò_85-3);}</style><linearGradient id="Áåçûìÿííûé_ãðàäèåíò_85" x1="174.53" y1="-4.24" x2="170.81" y2="51.87" gradientUnits="userSpaceOnUse"><stop offset="0.07"/><stop offset="0.14" stop-color="#202020"/><stop offset="0.29" stop-color="#636363"/><stop offset="0.44" stop-color="#9b9b9b"/><stop offset="0.57" stop-color="#c6c6c6"/><stop offset="0.69" stop-color="#e5e5e5"/><stop offset="0.79" stop-color="#f8f8f8"/><stop offset="0.86" stop-color="#fff"/></linearGradient><linearGradient id="Áåçûìÿííûé_ãðàäèåíò_85-2" x1="120.06" y1="60.59" x2="136.57" y2="-183.46" gradientTransform="matrix(-1, 0, 0, 1, 201.16, 0)" xlink:href="#Áåçûìÿííûé_ãðàäèåíò_85"/><linearGradient id="Áåçûìÿííûé_ãðàäèåíò_85-3" x1="166.32" y1="-5.07" x2="162.83" y2="47.69" xlink:href="#Áåçûìÿííûé_ãðàäèåíò_85"/></defs><g class="cls-1"><g id="Layer_2" data-name="Layer 2"><g id="Ñëîé_1" data-name="Ñëîé 1"><path class="cls-2" d="M237.67,29.08c47.77,0,103.16-.92,107.47-3.53a.71.71,0,0,0,.4-.6c0-1,0-3.74-119.8-6.67-41.24-1-82.86-1.69-104.44-2,8.6-.25,19.88-.6,31.12-1,46.51-1.83,47-3.3,47.18-3.93a.51.51,0,0,0-.14-.53c-2.2-2.24-31.3-3.22-49.23-3.6,13.72-.42,33.24-1.11,37.31-1.81,6.36-1.1,59.54,1.95,62,2.19l0-.61c-2.42-.24-55.69-3.28-62.08-2.19s-70.15,3.4-70.6,3.41l19.5-.61c20.43.21,45.91,1,49.08,3.35-3,2.1-52.24,4.63-88.2,5.46l9,.31c65.19.84,216.9,3.23,221.19,7.55a6.6,6.6,0,0,1-2.6.72c-13.55,2.27-53.71,3.64-99.06,3.51-55.06-.17-97.83-1.38-100-2.82a.5.5,0,0,0-.1-.23C122.93,21.84,12.57,19.9,0,19.69l23.09,2c49.16.81,99.8,1.53,102.13,4.06a.48.48,0,0,0,.19.33C127.76,28,183,29,233.8,29.08Z"/><polygon class="cls-3" points="138.57 0.55 15.54 1.01 117.13 0 138.57 0.55"/><path class="cls-4" d="M231.28,1.52c14.65-.41-79.63,0-79.63,0H99L136,0Z"/></g></g></g></svg>