<svg xmlns="http://www.w3.org/2000/svg" viewBox="0 0 345.54 29.07"><defs><style>.cls-1{isolation:isolate;}.cls-2,.cls-3{fill:#fff;mix-blend-mode:screen;}.cls-3{fill-rule:evenodd;}</style></defs><g class="cls-1"><g id="Layer_2" data-name="Layer 2"><g id="Ñëîé_1" data-name="Ñëîé 1"><path class="cls-2" d="M237.67,29.07c47.77,0,103.16-.92,107.47-3.53a.71.71,0,0,0,.4-.6c0-1,0-3.74-119.8-6.67-41.24-1-82.86-1.69-104.44-2,8.6-.25,19.88-.6,31.12-1,46.51-1.83,47-3.3,47.18-3.93a.51.51,0,0,0-.14-.53c-2.2-2.24-31.3-3.21-49.23-3.6,13.72-.42,33.24-1.11,37.31-1.81,6.36-1.1,59.54,2,62,2.19l0-.61c-2.42-.24-55.69-3.28-62.08-2.19s-70.15,3.4-70.6,3.41l19.5-.61c20.43.21,45.91,1,49.08,3.35-3,2.1-52.24,4.63-88.2,5.46l9,.31c65.19.84,216.9,3.23,221.19,7.55a6.6,6.6,0,0,1-2.6.72c-13.55,2.27-53.71,3.64-99.06,3.51-55.06-.17-97.83-1.37-100-2.82a.5.5,0,0,0-.1-.23C122.93,21.83,12.57,19.89,0,19.68l23.09,2c49.16.82,99.8,1.53,102.13,4.06a.48.48,0,0,0,.19.33C127.76,28,183,29,233.8,29.07Z"/><path class="cls-3" d="M220.07,1.52c14.65-.42-79.63,0-79.63,0H87.74L124.81,0Z"/></g></g></g></svg>